<svg xmlns="http://www.w3.org/2000/svg" xmlns:xlink="http://www.w3.org/1999/xlink" version="1.1"  x="0" y="0" viewBox="0 0 64 64" xml:space="preserve"><style type="text/css">.st0{clip-path:url(#SVGID_2_);fill:#FBBC05;}.st1{clip-path:url(#SVGID_4_);fill:#EA4335;}.st2{clip-path:url(#SVGID_6_);fill:#34A853;}.st3{clip-path:url(#SVGID_8_);fill:#4285F4;}</style><defs><path id="SVGID_1_" d="M59.3 26.7H56 45.1 32V38h15.7c-1.5 7.2-7.6 11.3-15.7 11.3 -9.6 0-17.3-7.7-17.3-17.3S22.4 14.7 32 14.7c4.1 0 7.9 1.5 10.8 3.9l8.5-8.5C46.1 5.5 39.5 2.7 32 2.7 15.7 2.7 2.7 15.7 2.7 32S15.7 61.3 32 61.3c14.7 0 28-10.7 28-29.3C60 30.3 59.7 28.4 59.3 26.7z"/></defs><clipPath id="SVGID_2_"><use xlink:href="#SVGID_1_"/></clipPath><polygon class="st0" points="0 49.3 0 14.7 22.7 32 "/><defs><path id="SVGID_3_" d="M59.3 26.7H56 45.1 32V38h15.7c-1.5 7.2-7.6 11.3-15.7 11.3 -9.6 0-17.3-7.7-17.3-17.3S22.4 14.7 32 14.7c4.1 0 7.9 1.5 10.8 3.9l8.5-8.5C46.1 5.5 39.5 2.7 32 2.7 15.7 2.7 2.7 15.7 2.7 32S15.7 61.3 32 61.3c14.7 0 28-10.7 28-29.3C60 30.3 59.7 28.4 59.3 26.7z"/></defs><clipPath id="SVGID_4_"><use xlink:href="#SVGID_3_"/></clipPath><polygon class="st1" points="0 14.7 22.7 32 32 23.9 64 18.7 64 0 0 0 "/><defs><path id="SVGID_5_" d="M59.3 26.7H56 45.1 32V38h15.7c-1.5 7.2-7.6 11.3-15.7 11.3 -9.6 0-17.3-7.7-17.3-17.3S22.4 14.7 32 14.7c4.1 0 7.9 1.5 10.8 3.9l8.5-8.5C46.1 5.5 39.5 2.7 32 2.7 15.7 2.7 2.7 15.7 2.7 32S15.7 61.3 32 61.3c14.7 0 28-10.7 28-29.3C60 30.3 59.7 28.4 59.3 26.7z"/></defs><clipPath id="SVGID_6_"><use xlink:href="#SVGID_5_"/></clipPath><polygon class="st2" points="0 49.3 40 18.7 50.5 20 64 0 64 64 0 64 "/><defs><path id="SVGID_7_" d="M59.3 26.7H56 45.1 32V38h15.7c-1.5 7.2-7.6 11.3-15.7 11.3 -9.6 0-17.3-7.7-17.3-17.3S22.4 14.7 32 14.7c4.1 0 7.9 1.5 10.8 3.9l8.5-8.5C46.1 5.5 39.5 2.7 32 2.7 15.7 2.7 2.7 15.7 2.7 32S15.7 61.3 32 61.3c14.7 0 28-10.7 28-29.3C60 30.3 59.7 28.4 59.3 26.7z"/></defs><clipPath id="SVGID_8_"><use xlink:href="#SVGID_7_"/></clipPath><polygon class="st3" points="64 64 22.7 32 17.3 28 64 14.7 "/></svg>
