<?xml version="1.0" encoding="utf-8"?><svg version="1.1" xmlns="http://www.w3.org/2000/svg" xmlns:xlink="http://www.w3.org/1999/xlink" x="0px" y="0px" viewBox="0 0 17.5 16.2" style="enable-background:new 0 0 17.5 16.2;" xml:space="preserve"><style type="text/css">.st0{fill:#000;}.st1{fill:#d1d5db;}</style><path class="st0" d="M8.7,1.8c-3.9,0-7.3,2.4-8.8,6c1.9,4.8,7.3,7.2,12.2,5.3c2.4-1,4.4-2.9,5.3-5.3C16.1,4.2,12.6,1.8,8.7,1.8z M8.7,11.7c-2.2,0-4-1.8-4-4s1.8-4,4-4s4,1.8,4,4C12.7,9.9,10.9,11.7,8.7,11.7z M8.7,5.4c-1.3,0-2.4,1.1-2.4,2.4s1.1,2.4,2.4,2.4 s2.4-1.1,2.4-2.4l0,0C11.1,6.5,10.1,5.4,8.7,5.4C8.8,5.4,8.7,5.4,8.7,5.4z"/><rect x="7.5" y="-1.2" transform="matrix(0.7071 -0.7071 0.7071 0.7071 -3.6951 8.4163)" class="st0" width="1.6" height="19.8"/><rect x="8.6" y="-2.3" transform="matrix(0.7071 -0.7071 0.7071 0.7071 -2.5764 8.889)" class="st1" width="1.6" height="19.7"/></svg>